<svg class="h-8 w-8 sm:h-10 sm:w-10 md:h-12 md:w-12 lg:h-14 lg:w-14 object-contain text-foreground hover:opacity-80 transition-opacity" width="100%" height="100%" viewBox="0 0 496 492" version="1.1" xmlns="http://www.w3.org/2000/svg" xmlns:xlink="http://www.w3.org/1999/xlink" xml:space="preserve" xmlns:serif="http://www.serif.com/" style="fill-rule:evenodd;clip-rule:evenodd;stroke-linejoin:round;stroke-miterlimit:2;">
            <g transform="matrix(1,0,0,1,-428.963,-1513.7)">
                <g transform="matrix(4.16667,0,0,4.16667,0,1218.75)">
                    <g id="art">
                        <g transform="matrix(0.24,0,0,0.24,0,-292.5)">
                            <path d="M647.101,1999.87C524.51,1987.06 428.963,1883.42 428.963,1757.45C428.963,1622.83 538.093,1513.7 672.713,1513.7C790.689,1513.7 889.077,1597.5 911.609,1708.83C880.428,1624.13 799.018,1563.73 703.491,1563.73C662.466,1563.73 624.05,1574.88 591.087,1594.32L670.379,1594.32C762.979,1594.32 838.054,1669.38 838.054,1762L838.054,1866.36C815.916,1852.26 784.358,1837.21 755.566,1857.79C726.187,1894.78 666.708,1901.3 623.583,1876C595.404,1907.04 542.3,1919.87 506.583,1887.37C535.095,1942.33 585.935,1983.84 647.101,1999.87ZM536.841,1868.16C551.195,1868.32 570.474,1851.26 567.757,1842.38C565.145,1833.85 509.17,1836.91 506.812,1844.14C504.466,1851.27 516.112,1867.94 536.841,1868.16ZM665.348,1725.61C694.19,1742.1 711.361,1770.62 703.677,1789.32C696.011,1808.02 667.261,1819.14 637.557,1793.3C612.478,1771.49 597.607,1749.8 599.219,1729.59C600.807,1709.44 636.49,1709.12 665.348,1725.61ZM497.046,1728.64C481.625,1750.36 477.692,1777.55 488.279,1789.35C498.275,1800.5 513.917,1759.45 535.538,1741.98C564.004,1715.3 525.283,1688.87 497.046,1728.64ZM757.674,1740.7C786.358,1702.8 778.773,1667.92 757.19,1649.53C735.606,1631.14 700.024,1629.26 672.712,1657.37C714.453,1667.29 748.641,1710.46 757.674,1740.7ZM506.893,1682.86C485.914,1658.74 494.435,1631.15 513.087,1618.43C531.739,1605.7 560.522,1607.85 580.068,1643.19C554.655,1645.87 528.247,1658.52 506.893,1682.86Z" style="fill:white;"/>
                        </g>
                      <g transform="matrix(0.24,0,0,0.24,-0.278286,-292.861)">
                            <path d="M911.609,1708.83C920.404,1732.69 925.204,1758.5 925.204,1785.43C925.204,1907.88 825.945,2007.13 703.491,2007.13C684,2007.13 665.097,2004.62 647.101,1999.87C655.506,2000.75 664.057,2001.2 672.713,2001.2C807.343,2001.2 916.463,1892.07 916.463,1757.45C916.463,1740.8 914.794,1724.54 911.609,1708.83Z" style="fill:rgb(3,7,18);"/>
                        </g>
                      <g transform="matrix(0.24,-0.000783035,0,0.24,-1.09549e-11,-292.103)">
                            <path d="M647.101,1999.87C585.935,1983.84 535.095,1942.33 506.583,1887.37C542.3,1919.87 595.404,1907.04 623.583,1876C666.708,1901.3 726.187,1894.78 755.566,1857.79C784.358,1837.21 815.916,1852.26 838.054,1866.36L838.054,1762C838.054,1669.38 762.979,1594.32 670.379,1594.32L591.087,1594.32C624.05,1574.88 662.466,1563.73 703.491,1563.73C799.018,1563.73 880.428,1624.13 911.609,1708.83C914.794,1724.54 916.463,1740.8 916.463,1757.45C916.463,1892.07 807.343,2001.2 672.713,2001.2C664.057,2001.2 655.506,2000.75 647.101,1999.87Z" style="fill:rgb(3,7,18);"/>
                        </g>
                      <g transform="matrix(0.24,0,0,0.24,0,-292.5)">
                            <path d="M536.841,1868.16C551.195,1868.32 570.474,1851.26 567.758,1842.38C565.145,1833.85 509.17,1836.91 506.812,1844.14C504.466,1851.27 516.112,1867.94 536.841,1868.16Z" style="fill:rgb(3,7,18);"/>
                        </g>
                      <g transform="matrix(0.24,0,0,0.24,0,-292.5)">
                            <path d="M665.348,1725.61C694.19,1742.1 711.361,1770.62 703.678,1789.32C696.011,1808.02 667.261,1819.14 637.557,1793.3C612.478,1771.49 597.607,1749.8 599.219,1729.59C600.807,1709.44 636.49,1709.12 665.348,1725.61Z" style="fill:rgb(3,7,18);"/>
                        </g>
                      <g transform="matrix(0.24,0,0,0.24,0,-292.5)">
                            <path d="M497.046,1728.64C481.625,1750.36 477.692,1777.55 488.279,1789.35C498.275,1800.5 513.917,1759.45 535.538,1741.98C564.004,1715.3 525.283,1688.87 497.046,1728.64Z" style="fill:rgb(3,7,18);"/>
                        </g>
                      <g transform="matrix(0.24,0,0,0.24,0,-292.5)">
                            <path d="M757.674,1740.7C786.358,1702.8 778.773,1667.92 757.19,1649.53C735.606,1631.14 700.024,1629.26 672.712,1657.37C714.453,1667.29 748.641,1710.46 757.674,1740.7Z" style="fill:rgb(3,7,18);"/>
                        </g>
                      <g transform="matrix(0.24,0,0,0.24,0,-292.5)">
                            <path d="M506.893,1682.86C485.914,1658.74 494.435,1631.15 513.087,1618.43C531.739,1605.7 560.522,1607.85 580.068,1643.19C554.655,1645.87 528.247,1658.52 506.893,1682.86Z" style="fill:rgb(3,7,18);"/>
                        </g>
                    </g>
                </g>
            </g>
        </svg>